<svg xmlns="http://www.w3.org/2000/svg" width="36" height="26" viewBox="0 0 36 26">
  <g id="Group_1262" data-name="Group 1262" transform="translate(-7333.814 -1686.277)">
    <path id="Union_102" data-name="Union 102" d="M18.212,23.467h-.037c-.036,0-.1,0-.176,0s-.139,0-.175,0h-.04v-.014a13.7,13.7,0,0,1-3.1-.6,17.486,17.486,0,0,1-3.225-1.369,19.99,19.99,0,0,1-3.683-2.606L9.1,18.207l.007,0,.017-.007a1.675,1.675,0,0,0,.159-.083l.086-.044,0-.008a3.444,3.444,0,0,0,1.084-2.973A12.549,12.549,0,0,0,9.3,10.277,14.538,14.538,0,0,0,8.124,8.12,10.843,10.843,0,0,0,6.77,6.442,4.241,4.241,0,0,0,4.035,4.968a1.683,1.683,0,0,0-.7.145l-.008,0,0,0-2.076.957C.588,3.446.178,1.354.174,1.333A2.08,2.08,0,0,1,.525.968,1.509,1.509,0,0,1,1.46.6a1.373,1.373,0,0,1,.58.135c.124.058.266.133.43.22A9.45,9.45,0,0,0,7.215,2.215,13.358,13.358,0,0,0,10.8,1.683c.7-.2,1.342-.378,1.907-.539h0c1.626-.464,2.8-.8,3.692-.97A9.5,9.5,0,0,1,17.807.005V0s.049,0,.131,0h.122c.083,0,.13,0,.131,0v0A9.5,9.5,0,0,1,19.6.174c.891.173,2.066.507,3.692.97h0c.564.161,1.2.343,1.906.539a13.358,13.358,0,0,0,3.581.532A9.45,9.45,0,0,0,33.53.959c.164-.086.306-.161.43-.22A1.374,1.374,0,0,1,34.541.6a1.509,1.509,0,0,1,.934.364,2.042,2.042,0,0,1,.351.365c0,.021-.414,2.113-1.076,4.742l-2.075-.957,0,0-.007,0a1.691,1.691,0,0,0-.7-.145A4.243,4.243,0,0,0,29.23,6.442,10.9,10.9,0,0,0,27.876,8.12,14.538,14.538,0,0,0,26.7,10.277a12.53,12.53,0,0,0-1.147,4.811,3.441,3.441,0,0,0,1.084,2.973l0,.008.086.044a1.675,1.675,0,0,0,.159.083l.018.007.007,0,1.319.668a19.99,19.99,0,0,1-3.683,2.606,17.486,17.486,0,0,1-3.225,1.369,13.7,13.7,0,0,1-3.1.6v.014Zm8.852-5.58,0-.008A3.365,3.365,0,0,1,25.941,15,11.452,11.452,0,0,1,27,10.4a11.814,11.814,0,0,1,2.425-3.624A4.147,4.147,0,0,1,32.1,5.387a1.761,1.761,0,0,1,.73.151c.039.017.069.032.1.048l.86.366A1.807,1.807,0,0,0,33.5,5.93,4.18,4.18,0,0,0,30.8,7.345a12.162,12.162,0,0,0-2.457,3.69c-1.544,3.491-1.422,6.95.272,7.709l.038.016-.013.027Zm-19.709.9-.013-.027.038-.016c1.694-.76,1.815-4.217.272-7.709A12.162,12.162,0,0,0,5.2,7.344,4.18,4.18,0,0,0,2.5,5.929a1.891,1.891,0,0,0-.287.022l.87-.37q.043-.023.089-.043a1.767,1.767,0,0,1,.73-.151A4.151,4.151,0,0,1,6.578,6.774,11.834,11.834,0,0,1,9,10.4,11.446,11.446,0,0,1,10.058,15a3.366,3.366,0,0,1-1.127,2.876l0,.007-1.579.9h0Zm22.033-.2c-1.7-.76-1.911-4-.479-7.241S32.877,6.1,34.574,6.859s1.91,4,.479,7.241c-1.227,2.776-3.265,4.648-4.89,4.648A1.873,1.873,0,0,1,29.389,18.586ZM.948,14.1c-1.431-3.238-1.217-6.48.479-7.241S5.658,8.107,7.09,11.345s1.217,6.48-.479,7.241a1.869,1.869,0,0,1-.773.161C4.212,18.747,2.175,16.875.948,14.1Z" transform="translate(7333.814 1688.81)" fill="#fff"/>
    <path id="Subtraction_237" data-name="Subtraction 237" d="M10.666,2.605h0c-.716-.2-1.392-.4-1.967-.55-.655-.175-1.152-.295-1.565-.375A9.9,9.9,0,0,0,6.1,1.534c-.279-.024-.5-.029-.632-.029-.084,0-.131,0-.131,0s-.056,0-.131,0c-.135,0-.353.005-.633.029a9.865,9.865,0,0,0-1.034.144c-.411.08-.908.2-1.566.375C1.391,2.209.708,2.4,0,2.6c.275-.318.557-.638.838-.954A5.974,5.974,0,0,1,5,0c.2,0,.326.012.331.012S5.468,0,5.664,0A5.974,5.974,0,0,1,9.827,1.65c.326.367.608.687.837.952Z" transform="translate(7346.482 1686.277)" fill="#fff"/>
  </g>
</svg>
